/* XPM */
static char *_31b5213e36e47a586bf7abceb7293884WPupjCNTAwYYInK[] = {
/* columns rows colors chars-per-pixel */
"64 64 233 2 ",
"   c #9F1F40",
".  c #AA1F4C",
"X  c #A5264D",
"o  c #AC254C",
"O  c #A82346",
"+  c #B2274E",
"@  c #B52B4F",
"#  c #AC2353",
"$  c #AE2E5A",
"%  c #AE2859",
"&  c #B52C56",
"*  c #BD265D",
"=  c #B42B5C",
"-  c #BA2C5C",
";  c #B62853",
":  c #BC335B",
">  c #B63459",
",  c #B62D63",
"<  c #BB2C64",
"1  c #BC2D69",
"2  c #BA2A66",
"3  c #B53364",
"4  c #BC3364",
"5  c #BD3A65",
"6  c #BD336C",
"7  c #BB3A6C",
"8  c #B7306A",
"9  c #BD3B72",
"0  c #BF3A78",
"q  c #C4265C",
"w  c #C71E68",
"e  c #C42565",
"r  c #C42C65",
"t  c #CA2965",
"y  c #CA246D",
"u  c #C52B6C",
"i  c #CA2D6D",
"p  c #C5266B",
"a  c #D0286C",
"s  c #C23364",
"d  c #CD3365",
"f  c #C4346C",
"g  c #CC336E",
"h  c #C23B6D",
"j  c #CB3D6D",
"k  c #C53A62",
"l  c #D2346E",
"z  c #D13B6D",
"x  c #D23766",
"c  c #CB2C73",
"v  c #C82974",
"b  c #D32C72",
"n  c #D22A77",
"m  c #C43474",
"M  c #CC3474",
"N  c #C53C73",
"B  c #CC3B74",
"V  c #CD367A",
"C  c #C53C7A",
"Z  c #CD3C7B",
"A  c #D23673",
"S  c #D33C74",
"D  c #D3347A",
"F  c #D33B7C",
"G  c #D83C75",
"H  c #CC426E",
"J  c #C2466B",
"K  c #D8416C",
"L  c #C54375",
"P  c #CB4374",
"I  c #CD4B75",
"U  c #C5427B",
"Y  c #CC447C",
"T  c #C44C7C",
"R  c #CD4A7C",
"E  c #C54974",
"W  c #D44575",
"Q  c #D94375",
"!  c #D14B76",
"~  c #DA4E75",
"^  c #D3437C",
"/  c #D8457A",
"(  c #D44B7D",
")  c #D94B7D",
"_  c #CC527D",
"`  c #CB577A",
"'  c #D3517D",
"]  c #D9517B",
"[  c #D55177",
"{  c #CE3F82",
"}  c #D33D83",
"|  c #D73B87",
" . c #CC4582",
".. c #CE4A84",
"X. c #CE4D8B",
"o. c #C74982",
"O. c #D44583",
"+. c #D94483",
"@. c #D44B84",
"#. c #DA4B85",
"$. c #D54589",
"%. c #D9468B",
"&. c #D44C8A",
"*. c #DA4C8B",
"=. c #CE5382",
"-. c #CD5889",
";. c #D45484",
":. c #DA5385",
">. c #D45A85",
",. c #DB5A85",
"<. c #D5538C",
"1. c #DA538C",
"2. c #D65A8C",
"3. c #DB5C8C",
"4. c #D44D90",
"5. c #DB4D92",
"6. c #CF5491",
"7. c #D55592",
"8. c #DA5493",
"9. c #D65B93",
"0. c #DB5C94",
"q. c #DC559A",
"w. c #DC5D9A",
"e. c #D5599B",
"r. c #E05B8D",
"t. c #E05D95",
"y. c #E05E9A",
"u. c #E0569A",
"i. c #DC628D",
"p. c #DD6B8E",
"a. c #D2648C",
"s. c #D66393",
"d. c #DC6394",
"f. c #DC6B95",
"g. c #DD649C",
"h. c #DD6B9C",
"j. c #D56898",
"k. c #DD7194",
"l. c #DE739C",
"z. c #DE7B9C",
"x. c #E06786",
"c. c #E1668F",
"v. c #E06594",
"b. c #E26A95",
"n. c #E1639B",
"m. c #E26C9C",
"M. c #E27295",
"N. c #E3739C",
"B. c #E47A9C",
"V. c #E77D98",
"C. c #DF5AA4",
"Z. c #E25DA4",
"A. c #E25DAA",
"S. c #DD64A1",
"D. c #DE6CA2",
"F. c #DF6CA9",
"G. c #DE73A3",
"H. c #DE7BA4",
"J. c #DE73AA",
"K. c #DE78AA",
"L. c #DF7FB2",
"P. c #E264A3",
"I. c #E26DA2",
"U. c #E463AB",
"Y. c #E26CAA",
"T. c #EB69AE",
"R. c #E374A3",
"E. c #E875A4",
"W. c #E47BA4",
"Q. c #E97DA4",
"!. c #E475AA",
"~. c #E873AC",
"^. c #E47CAB",
"/. c #E97BAC",
"(. c #E666B3",
"). c #E56DB4",
"_. c #EA6BB7",
"`. c #E575B2",
"'. c #E974B3",
"]. c #E47BB2",
"[. c #E97CB3",
"{. c #EB76BD",
"}. c #E771C0",
"|. c #E977C5",
" X c #E5849D",
".X c #DE91B0",
"XX c #DA8FAE",
"oX c #E583A5",
"OX c #E882A4",
"+X c #E58AA4",
"@X c #E889A4",
"#X c #E483AB",
"$X c #E983AE",
"%X c #E58BAC",
"&X c #E98DAC",
"*X c #E692A6",
"=X c #E593AD",
"-X c #E990AC",
";X c #E799AB",
":X c #E69BAB",
">X c #E583B2",
",X c #E983B2",
"<X c #E58CB3",
"1X c #E98CB4",
"2X c #E586BA",
"3X c #E68BBA",
"4X c #E98DBC",
"5X c #EB82B9",
"6X c #E593B3",
"7X c #EA94B4",
"8X c #E69AB4",
"9X c #E998B2",
"0X c #E593BA",
"qX c #E992BB",
"wX c #E59BBB",
"eX c #E99BBB",
"rX c #E4A9AD",
"tX c #E7A3B1",
"yX c #E6A3BD",
"uX c #E9A3BD",
"iX c #E7AAB3",
"pX c #ED81C3",
"aX c #EC8DC7",
"sX c #E696C0",
"dX c #E799C1",
"fX c #E99CC3",
"gX c #E99ECE",
"hX c #ED9DD4",
"jX c #EB8ED0",
"kX c #E4A2C1",
"lX c #E9A8C3",
"zX c #E9A1D5",
"xX c #E6B6CA",
/* pixels */
"8.g.1.&.&.1.m.$X,.8.n.d.0.h.m.W.Q.N.:.P.7.9.3.>.R.@.I.h.;.! l.H.,.9.w.B N m N f N - < B h ;.0.G.2.<.@.&.F O.Z  .$.3X<X^.R.s.!.1.",
"0.m./.w.*.g.^.W.#.y.d.@.] 9X XV.x.] :.( F S.D.3.m.h.h.3.<.l.W.s.;.=.=.;.K.S.7.D.Y f Y P.n./.Q.N.#XqX>XG.7.$.C.zX2XsX7Xk.W.G.,XW.",
"!.H.^.hXhX4XW.R.0.w.^ N.7Xc.,.) #.S 8.8.^.[.[./.:.R.d.d.>X^.I.2.9 h 7 -.J.^.h.9.w.@.g.S.y.#.t.E.E.%X<X%XfXwXsX%XkXoX,.#.:.,./.R.",
"N.oX!.[.W.B.v.3.Q f.&X!.,XR.m.d.8.1.B ;.,X,Xv.i.P.8.d.d.i.!.,Xn...3 = T J.K.J.`.w.8.w.@.8.8.~.h.R.w.h.N.:XuXuX9X6Xb.1.q.n.+.m.f.",
"R.N.R.N.i.B.W 3.m.@XM.oXW.m.~.!.r.G q.R./.N.,.:.t.;.8.2.h.3.,.N.g.<.X.e.j.J.2XF.<.D.].K.R.G.h.h.!.S.n.!.b.v.Q.%XfXv.v.F *.*.+.g.",
"@.@.:.:.c.W #.@.W.i.) :./.E.B.E./.N./.E.b.:.:.3.0.d.D.7.&.;.;.0.w.P.}.C.F.>X2X>XG.<X%X%X=X%X8X%XlX<XI.w.n.v.m.!.5X5.G F G #.F F ",
"V D *.S S S g 2Xr.0.w.t.x N.B.M.M.Q.N.b.) #.*.+.v./.g.V Z  .&.@.m.n.Y.w.d.l..X%X+XoXOXf.B.H.8X*X*X:X=X+.3.0.3.t.*.| D %.8.2XO.c ",
"Z D M c i g ! ,X0.n./ Q :.~ ~ ~ ~ ~ x x M %.V E.W.W.d.v Z X. .Y ;.~.d.;.;.d.k.l.,.,.3.m.h.W.8X6X9Xb.l./ | %.+.1.*.D D %.gXqX>Xh.",
"].&.e u i r oXOXv.n.A O.M Z i F t l z A D F I.N.M.oX#XD.@.O.m < 2.R <.@.Y ^ H W 2.1.8.*.$X=X:X+XE.*.%.5.w.G.yXxXlXfX>XF.h.Q.^./.",
">X>X&.$.F B W.c.r.y.8.F } t B S l g A A V &.[.E.^.H.6X.X0XkX/.Y B B N h 4 7 B Z Y &.S oX9X;X%X#X1.D.%.S.8XrXrX+XB.&X9X<Xh.g./.>X",
"^.!.5X!.`.D.E.v.G 1.1.+.q.Y.[.5X~.Y./ A O.C.n.b.m.i.#XoX<X<XH.>.m f 6 6 2 9 m u m u K.0X#Xl.1.1.1.O.| wXiXiXoXf.R.W.1XeXW.1.^.!.",
"d.N.I././.!.N./ +.@.0.[.[.I.m.E././.!.'.y.Y.0.b.m.3.m.l.G.%XW.f.2.Z m  .C C C m 1 g.>X0X7XW.9.<.O.| 2XyXiXiXR.^.w.^.>XuX7Xl.8.l.",
"@.1.I.R.l.v.] d +.n.[.N.v.x r.G b././.v.~.S.I.n.d.d.+.2.h.#Xl.R.#X,X4X].`.J.!.9...!.^.W.&X%XL.{ c g.dX8XrX8XR.1.1./.<X+X-X$Xg.+.",
"@.O.1.3.) ^ S G F /.b.) #.r./ ~ 0.w.E./.].~.w.,.^ S i M O.w.h.l.G.B.H.G.#XW.h.h.g.`.;.f.p. X>X9.$.h.wX=XrXtXh.b *.1.v.v.b.Q.$XG.",
"<.+.O./ l z S i u.E.c.I.t.G l G g.]./.R.^.Y.<.1.Y e c i Z V F &.f.l.p.l.h.h.>.s.7.P.S.1.0.M.Q.<X#XK.sX#X8X:X%XO.5.n.t.*.1.W.f.^.",
"].g.O.} d i t a n.I.b.E.m.+.a b '.$XB.#.n.I.g.1.<.Z i Y 7.9.g.C 9.@.+.2.O.R H X. .U Y.).E.!.W.$Xf.2X3XK.z.+X8X>X8.1.8.+.*.d.B.W.",
"#X#XD.O.t t w c w.E.Q.m.~.1.O.*.[.OXr.m.y.I.D.F  .7.S.].2X4X%XG.O.O.V V  ...j N 9.U.P.m.E.m.m.1.;.9.[.K.f.&X%X6X6X#Xd.1.w.0.,.h.",
"W.<XN.,XD.A D &.w.0.E.I.!.!.+.R.E.b.Q.R./.D.8.;.7.'.!.].>XG.z.W.9.c M c V f h Z.0.t.m.v.;.;...&.s R !.d.0.d.p.OX=X%XwX8XlXkX2Xg.",
"^.^.W.Q.!.w.^ w.1.^.E.N.r.v.r.E.oX$XOX&X>XwXK.s.w.'.~.aX;.! W 0.9.8.w v u u u.P.t.r.H k j @ + P h - 2.Y 1.g.d.^ k.*XoXeX7X1X%X4X",
"B.W.N.N.$X].v.d.~.Q.V.,.1.#.8.R.OX X X+XoXoXj.-.`.g.].9.R 8.O.G.J.S.{ c { $.u.1.t.W k 4 s N & : - < e. .&.<.D.2.>.k.B.%X%XN.1.oX",
"p.b.oXQ.M.Q.,X$X$X&Xr.Q #.*.Y.n.) v.,.i.i.i.z.j.w.g.{.e.e.V &.0.K.^.K.2.<.$.&.P.1.P s 6 < 8 . 3 <.P./.!.^.g.<.g.s.<Xl.i.W.N.R.3.",
"1.i.N.#XM.W.B.N.c.r.Q Q G G 8.&.:.W S G +.3.j.s.U.Y.|.).7.C @.S.^.^.N.#X8.9.q.0.B N 3 o O + e.U.'.m.b.N.N.$Xl.0.!.<.O.^ +.f.w.n.",
"1.t.) f.f.b.,.W K d B A D b 8.F A B c M D g.a.g.{.P.Y.g.4.Z 7.g.W.l.W.#X3Xg.w.@.P N o O > P.T.I.3.! ' H ;.a.$X^.7.O.F O.#.q.n.*.",
"*.%.O.+.A A M Z r m c $.M h.Y.S.O.* f ^ q.Z.P.P.Y.m.;.9.<.B &.4.,.d.^.2.h.K.;.k h h + h (.T.t.:.k q s ( 7.] Q.#X2X&.$.1.D b *.+.",
"g.8.} F M e < 2 - 3 L X.J w.w.9.7.L e.C.(.U.U.P.v.m.,.0.w.9.M @.;.D.g.f.>.W.H.9 - @ : _.Z.U.&.L f 4 - s @.!.h.qXg.<.&.7.O.F 8.8.",
">X<XD.m q = 3 7 7 7 7 3 ..@ 8.&.&.&.A.1.O.P.'.0.( j s ( 7.@.7.&.I.D.g.d.h.z.s.-.3 & &.q.y.Y.w.g.< * f 3 ;.0.h.G.^.j.w.D.!.%X&X7X",
"W.K.[.g.X.3 $ 6 3 7 L Y &.&.*.y.@.8.Y 8.7.n.E.0.S.Y O.Z m d 9.Y.I.B.d.i.G.G.k.T T  .4.5.u.1.0.V m 6 1 U g.2.9.h.J.J.L.3X9XoX X%X",
"N.R.I.D.w.C.4.U U L @.C.q.Z.8.N U &.Y Y.S.0.,.h.P.Y.O.r q P !.N.!.v.#.S g.^.^.^.h.D.} } A V c p V m C g.g.=.@.9.-.s.H.z.-XV.B.,.",
"@.:.t.0.3.y.8.A.U.Z.P.Z.U.1.0.Y B 4 <.F.!.D.m.b.!.R.[.1.( R.N.b.@.B e { g <.3.N.m.I.0.V y D v M  . .m F.h.[ _ o.N R 3.a.B.f.l 0.",
"A m P 0.! n.w.1.T.0.n.t.P 3.h L B s |.pX!.[.i.,.m.N.^.N.Q.m.) S t u { V r @.i.#X,.w.8.^ $.V  .{ O.C 7.2.;.;.g.o.o.C U ;.@.d.1.O.",
";.R h 4 1.w.:.! 3.! ! I <.- s f f  .R.R.R.9.O.g S d R.h.m.v.^ M Z &.^ O.Z &.f.l.0.8.O.D V $.&.&.&.=.g.2.' >.2.w.m m C 8.g.7.V F ",
"g.0.@.4 s 4 h P P P Y N 4 - 1 m C &.&.<.<.^ Z B t ;.I./.d.!.w.O.O.@.O.O.&.0.h.m.#.*.&.O.m.w.3.<.2.D.7.h.i.,.=.<.Z  .7.D.,.<.M @.",
"R R ;.N C N C 4 N * < P f <.9.I.2.<.@.<.Z  .F { $.4X1XW.G.0.^.1.0.y.1.&.&.1.n.#X3.3.y.d.d.d.M.W.W.B.) I.9.7.3.2.R.@.I.h.>.N I h ",
"5 : L X.^.g.7.D.Y f Y S.n./.Q.B.#X4X>XF.7.$.S.hX2XdX0Xb.W.G.,XW.3.I.^.g.*.g./.W.+.v.g.#.;.9X XV.c.] :.O.F D.G.,.m.h.h.3.2.h.s.L ",
"- 3 3 -.^.^.D.7.g.+.g.P.y.#.v.R.E.&X%X%XfX0XwX%XkX#X3.#.:.1./.R.^.W.].hXhX4XW.R.0.w.^ N.7Xc.,./ #.S 3.8./.[.[./.1.E.3.:.$X!.N.;.",
"..3 $ o.J.K.F.`.w.8.0.@.8.8.!.d.E.s.h.N.8XuXyX9X=Xf.:.0.n.#.m.d.m.W.!.^.Q.B.v.3.S m.%XW.$XR.m.n.0.1.M ;.,X,Xv.3.I.1.8.w.h.W./.D.",
"n.&.X.e.9.D.K.D.<.j.K.^.R.G.h.g.!.P.S.!.b.v.Q.&XeXd.d./ @.1.+.g.W.N.R.N.i.B.W ,.m.OXM.$X!.I.E.E.1.Q 0.!./.N.] :.t.O.<.7./.d.i.m.",
"v.P.}.C.P.Y.D.!.-.k.l.z.%X%X8X&XkX<XN.w.n.n.m.!.5X*.G F G *.F D @.@.#.:.c.W #.^ I.f.,.,.Q.R.N.B.^.h.W.E.v.:.:.3.1.d.D.R.G.s.3.d.",
"I.n.Y.w.0.;.>._ J E T 2.l.l.8X*X*X9X%X+.3.t.1.w.%.| D *.1.2X@.M D D #.F B S m I.h.d.!.d.K b.c.b.b.B.b.v.) %.1.#.d.,X!.g.<.&.<.@.",
";.'.d.( ' @.7 > O $ 7 w.P.R.%X%X;Xp.l.+.F %.+.*.*.n | %.gX4X>Xh.Z V V i M A f.1XW.W.:.Q ;./ ] ~ ~ Q K x A &.O.!.OXW.m.B } X.Y Y ",
"2.R <.@.P o.& h 2 # , 7.w.G.z.H.N.@.O.$.8.h.XXXX.X0X>XD.g.$X^.^.].&.e u g _ W.=XB.h.W +.M F i D t l z l V F D.E.N.#XH.h.@.Z m r ",
"B B N N 4 - % , % 8 6 S.n.m.2.g.&.;.}  .-.` ` ` >.B.6X6Xm.d./.>X,X>X&.&.O.;.OXB.+XR.8.Z } t B S g i G M V *./.N.$XoX6X6X6XfX>XY ",
"m f 6 6 2 2 2 # 3 C  .s.3.( P Y C Y &.s.h.!.R.I.I.h.%XeXW.1.!.W.^.R.,XJ.`.w.3.] b.0.<.+.q.Y.5X[.~.Y.O.A O.P.n.v.3.d.#XH.<X<XH.2.",
"2.Z m  .C 2 1 C  .X.g.3.>.H @. .Y s.P.R.m.I.n.I.P.].>XuX7Xh.w.m.d.R.I.~.~.I.d.1.1.1.0.]./.I.m.E././.!.'.w.P.t.v.m.:.h.l.N.%XH.f.",
"#X,X4X].J.J.].jXjXG.h.m.n.P &.N 8.R.f.0.;.) I.h.n.!.%XoX*X$Xg.@.O.2.I.R.h.0.@.g #.g.[.N.v.K r.G m./.Q.n.`.P.I.i.0.h.O.1.h.#Xl.G.",
"G.z.W.l.^.^.f.>X!.l.$X3.Y <.O.e.h./.:.W ;.P P #.t.1.v.m.b.E.$XR.@.+.1.8.) ( S ^ ^ !.c.) ) r.) ) t.t.E././.`.w.1.^ M t V @.w.h.l.",
"f.k.d.l.f.W.W.H.<XB.i.N @.O.Z L.!.i.g.Y N P =.^ 5.g.0.*.1.W.k.^.<.+.O.^ j S +.B &.E.,.E.r.G l G g.`./.E.^.Y.w.s.^ e i u V V Z <.",
"9.&.@.9.@.<.3.0.#Xf.+.9.Z e  .G.^.f.g.7.f N a.G.w.1.*.%.*.i.W.W.5Xg.O.^ d g B @.8.I.m.E.I.+.a a [.#XB.#.t.I.d.9.X.B M Y <.9.g.Z ",
"O.@.V V { e.$.J.H.s.8.@.C m 7.D.>Xl.0.7.Z 2.f.=X.X#Xg.&.w.8.,.h.#X/.S.^ t i Z O.w.E.Q.m.!.1.%.O.[.OXr.m.w.w.9.o.@.7.g.].2XqX%XD.",
"9.c M c { | 6.2XoX<.w.8.c $.e.K.H.f.h.D.D.<.2. X=X=XwX8XlXuX3Xw.W.<XR.>Xm.B O.1.8.3.E.I.^.!.+.R.W.b.!.m.D.w.w.B 7.`.`.>X>XH.z.H.",
"9.9.y c { w | 0X.Xh.g.s.j.$...D.2.d.l./.S.F.w.^ k.=XoXeXqX7X%X3X#XK.W.Q.I.w.H n.@.^.E.m.1.v.r.E.oXE.B.~.g.6.h N w.'.~.aX' ^ W d.",
"J.S.D c { | q.S.l.%X%XJ.S.&.j.e.s.d.l.d.g.9.g.<.>.k.B.&X#XN.1.Q.B.W.N.M.!.F.2.' I.B.V.r.r.#.8.R.oX XB.d.I s 3 ; ).g.`.8.R 9.O.D.",
"^.!.K.;.*.} 4.G.=X.X#X<XD.g.K.D.G.H.R.d.2.2.@.g.d.<XN.i.H.N.B.r.p.M.OXB.N.P.n.>.g.B.,.Q +.%.Y.D.( ,.I 5 L & o L 7.w.|.e.w.V &.9.",
"K.^.E.#Xs.8.w.G.l..X#XoXwX.Xj.h.H.f.i.R ..T s.s.F.<.O.^ @.d.w.n.1.d.N.W.v.m._ 2.J _ ^ Q A G t.#.@.N = + : & N  .U.F.|.).7.C &.S.",
"^.N.W.%X3Xg.D.8.s.%X6X.XW.kXH.#Xf.a.( f h L D.~.7. .Z +.#.q.y.*.1.0.O.b.i.;.E @ & & g S A a q.F B - & o 5 &...Z.}.P.Y.S.&.Z 7.g.",
"3.s.^.>.h.>Xg.&.9.h.#Xl.#X6X%XH.W.f.* U N ..I.h.l.&.$.<.D b *.#.5.*.O.^ N N 5 X o < m O.M !.R.P.O.; 3 O.(._._.).~.I.;.3.<.B &.4.",
":.h.d.f.,.#XfXD.O.5.2.#XW.7XW.l.@.f 1 6 N D.n.>.=.o.&.&.O.F 8.8.n.q.} V r #   X X $ L -.` D.h.s.8.U 4.C._.{.'._.n.m.,.8.g.7.B @.",
"I.F.d.g.h.W.H.3XG.&.} 0.K.#Xh.G.p * m 1 ;.g.( R R o.6.D.!.=X&X1X#X4XJ.B - o $ $ 3 7 9 5 <.: 1.8.<.<.A.7.+.U.'.d.( W k R 7...7.&.",
"E.R.p.3.G.^.%X!.4X0.} n } O.8.u m 0 2 U D.;.I 5 o.U G.3X9X@X X-XW.W.2XD.X.3 % 3 3 6 C ^ &.&.&.q.@.7.( 8.8.g.E.0.S.Y $.Z B t 7.Y.",
"!.d.@.B g.^.W.W.!.K.{ i V v u p V 0 C g.h.R R X.0 L s.p.-XB.B.] B.R.R.Y.w.C.4.U U U @.u.q.w.7.N U &. .P.g.8.3.m.I.Y.O.t q P !.R.",
"] B e { M ;.3.W.m.m.g.c w V c V  . .M J.N.' o. .6 C 2.>.f.i.S 0.@.:.0.d.3.y.q.A.U.P.P.P.U.1.q.P P s 4.Y.Y.R.N.f.!.I.[.7.( R.N.b.",
"e i { V p @.i.#X,.w.0.F $.V  .{  .Z 7.2.' ;.d.o.o.0 C ..@.D.w.1.^ j P 0.! n.w.1.T.0.y.y.P 3.h N B 4 |.pX!.[.3.:.N.N.^.N.E.b.] S ",
"V *.^ O.F &.d.l.0.8.O.D A %.&.&.@.&.g.a.' >.2.8.m m C 0.I.d.2.B h s 4 4 8.w.1.! 3.! ! P ;.- 4 f f  .R.R.I.0.+.M S d R.v.m.f.@.M ",
"O.&. .@.&.9.N.m.#.&.&.O.m.w.0.@.9.D.<.h.i.3.;.<.Y  .9.D.d.f.B @.Y @.Y < s : h P P P R N 3 - < C Z ..<.<.;.Y Y B i ;.I./.d.!.8.O."
};
