/* XPM */
static char *_80d7bcbce8a48cfa09670eb9389efbcXpR5lzCNEmgf3iEy[] = {
/* columns rows colors chars-per-pixel */
"64 64 190 2 ",
"   c #AA7A13",
".  c #B9990F",
"X  c #AE8214",
"o  c #B18115",
"O  c #B48D14",
"+  c #B28619",
"@  c #B48B1B",
"#  c #B88D1B",
"$  c #B79314",
"%  c #B89615",
"&  c #BB9B16",
"*  c #B7921D",
"=  c #BA951C",
"-  c #BD9B1B",
";  c #BFA317",
":  c #BEA11C",
">  c #BB9522",
",  c #BE9B23",
"<  c #BF9E28",
"1  c #C09D17",
"2  c #C29F1D",
"3  c #C3A514",
"4  c #C4AB17",
"5  c #C9AF16",
"6  c #C3A41C",
"7  c #C5AA1B",
"8  c #C9AD1D",
"9  c #C7B115",
"0  c #CBB316",
"q  c #CDBC15",
"w  c #CBB41C",
"e  c #CEBA1C",
"r  c #D1BF17",
"t  c #D2BD1C",
"y  c #C19E22",
"u  c #C19D29",
"i  c #C3A423",
"p  c #C9A722",
"a  c #C6AA23",
"s  c #C9AD24",
"d  c #C3A32B",
"f  c #C6A92A",
"g  c #CAAD2C",
"h  c #C7B027",
"j  c #CCB324",
"k  c #CEBA24",
"l  c #CDB32B",
"z  c #CEBB2A",
"x  c #D0B624",
"c  c #D2BC24",
"v  c #D1B52D",
"b  c #D2BC2C",
"n  c #C7A530",
"m  c #CAA631",
"M  c #C6A930",
"N  c #CBAD32",
"B  c #CEB433",
"V  c #CFBA32",
"C  c #CFB339",
"Z  c #CFB839",
"A  c #D1B634",
"S  c #D3BC34",
"D  c #D8BF37",
"F  c #D1B539",
"G  c #D4BC3B",
"H  c #D8BF3C",
"J  c #CEC015",
"K  c #D0C114",
"L  c #D7CC14",
"P  c #D4C41C",
"I  c #D7CA1D",
"U  c #DACE1C",
"Y  c #DCD21D",
"T  c #D5C324",
"R  c #D9C626",
"E  c #D6C823",
"W  c #D9CB25",
"Q  c #D5C32C",
"!  c #D8C52C",
"~  c #D7C929",
"^  c #DACB2C",
"/  c #DCD222",
"(  c #DDD22C",
")  c #D6C333",
"_  c #D9C534",
"`  c #D7C934",
"'  c #DBCB34",
"]  c #D6C23B",
"[  c #D9C43C",
"{  c #D6C83A",
"}  c #DCCB3C",
"|  c #DDD133",
" . c #DED23B",
".. c #E0CE3E",
"X. c #E1D435",
"o. c #E3D936",
"O. c #E1D43C",
"+. c #E3D93D",
"@. c #D5BF40",
"#. c #D8BF41",
"$. c #D6C341",
"%. c #DBC541",
"&. c #D7C841",
"*. c #DDCB43",
"=. c #DECD49",
"-. c #DED142",
";. c #DFD248",
":. c #E1CE44",
">. c #E1CE49",
",. c #E2D444",
"<. c #E5DA44",
"1. c #E8DD46",
"2. c #E4D44B",
"3. c #E8D74D",
"4. c #E6DA4B",
"5. c #E8D94D",
"6. c #E9DB4F",
"7. c #E8D84F",
"8. c #E9DD4F",
"9. c #EADF4F",
"0. c #E9DD4D",
"q. c #E6D550",
"w. c #E4D750",
"e. c #E6D750",
"r. c #E5D551",
"t. c #E8D751",
"y. c #E7DA51",
"u. c #E6DC50",
"i. c #E7DC52",
"p. c #E6DA52",
"a. c #EAD851",
"s. c #EBDE50",
"d. c #E8DF53",
"f. c #EBDC55",
"g. c #E9DE54",
"h. c #EADD53",
"j. c #EADD59",
"k. c #E9E046",
"l. c #E7E04F",
"z. c #E9E149",
"x. c #EBE24B",
"c. c #E9E04F",
"v. c #EAE14C",
"b. c #EBE151",
"n. c #E8E052",
"m. c #EBE053",
"M. c #ECE152",
"N. c #EDE451",
"B. c #EDE651",
"V. c #EAE356",
"C. c #ECE155",
"Z. c #EDE355",
"A. c #EDE357",
"S. c #EEE357",
"D. c #EDE455",
"F. c #EFE555",
"G. c #EDE456",
"H. c #ECE254",
"J. c #EDE359",
"K. c #EFE459",
"L. c #ECE55B",
"P. c #EFE55A",
"I. c #EEE659",
"U. c #EEE45A",
"Y. c #EFE85C",
"T. c #F0E756",
"R. c #F0E659",
"E. c #F3E65C",
"W. c #F0E65E",
"Q. c #F0E65C",
"!. c #F1E859",
"~. c #F1EA5F",
"^. c #F2EA5F",
"/. c #F3EB5F",
"(. c #F1E95D",
"). c #EFE763",
"_. c #F1E660",
"`. c #F0E960",
"'. c #F4EB60",
"]. c #F4ED66",
"[. c #F3EB63",
"{. c #F8EE64",
"}. c #F5EE69",
"|. c #F8EF69",
" X c #F7F067",
".X c #F7F065",
"XX c #F7F16D",
"oX c #F9F36D",
"OX c #FAF574",
"+X c #FBF873",
/* pixels */
"G 2.e.2.t.>.u # > g 6 a i.-.<.4.B.-.z.l.;.-.2.} { *.} s { | | ^ k.1.B.F.,.4.<.} 3.D ..T.v A f.[ 6 ....v l s ] z S ) ;.i.2.=.L.] ",
"G @.#.>.q.C t.u N f f l Y.-.L.-.l.;.| B. . .4.[ } h s z  .` W U +.o.<./.1.c.h.,...{.) v :.%.A H g ..v p ) l [ ;.*.;.{ ;.,.K.] K.",
"q.F 2.C m t.>.m G Z e.2.2.4.n.).-.l. .` z.' ) 2.l ] l h ` ( L Y ( B.B.<.5.5.G.N...x v v ..q.A N g S 1 g a { %.} u.*.-.Q 9.S h.G ",
"2.#.n F u m m H %.=.=.f.8.T.4.` ;.T ` w  .V z s S 6 [ l K L Y Y o.x.+.k.0.N.[./.,.E.:.D >.a.>.>.H F i 2 %.y.n.2.-.-.Q ) _ ,.3.:.",
"%.H d m m u :.m *.$.2.] } ,. .} w.{ *.z j *.6 %.i $ & 5 | Y ( / k.1.1.f.S.N.G.(.E.1.a.:.3.3.E.H >.g H ] [ 2.K.[.c.L.` k T.j s :.",
":.m $.@ u :.  d ] F %.S ;.) { ) ) { j j a & =.O * % k ^ z.| | z.+.X.1.X.,.F.v.G.3.....D %.>.m >.m >.:.f.:.f.<.v.F.N.c.' j 7 2.i ",
"d A m H   + # u = :.a e.%.S y.{ ] ) [ 4.{ l f g f s 2.4. .Y.Y.z.( I ,.<.T Q.O.X.O...3.H E.p %.D a.t.f.a.<.,.O.1.x.F.+.n.{ S g g ",
"G # o +     # d A G f s *.a a ) l [ ] G 4.2.%.>.%.%.2.f..Xz.( +.<.X.R O.' ,.R O.X.D E.3.D D D #.a.E.f.E.,.9.<.1.1.x.' 8._ { s = ",
"u # = F = > N B F i 2.%.& i a : g *.] G 2.2.G %.F } [ h.o.+.v.+.,.C. .,.O.O.R ~ T S.4.R.E.E.:.>.a.>.5.T.G.1.+.o.k. .^.! ) A S y ",
">.q.>.H %.B G >.S g a i 6 i - & A D $.>.2.%.2.:.[ A 3.X.1.+.v.^.9.U.L.]._.4. .^ ,.n.f.3.{.S.E.>.S.<.E.c c.| +.| E N.T ..:.$.G >.",
">.3.F 3.>.] h.*.{ *.] 6 g V B ] G ] :.G G :.%.p S ,.} ' ,.P ^ ^ N.4.V.U.L.^.'.X.0.!.3.5.:.:.f.3...v ,.' R O.( Y.| ^ t _ :.%.2.2.",
"%.f.f.2.[ f.:.h.).2.2.].C.[ G @.F >.G %.>.v D 3.:.,.,.,.P t ~ ,.L.h.}.[.G.L.N.!.<.} {.T.D :.s.2.x 3.,.~ ^ <.,.E ^ P 9.0 b :.D q.",
"f.A >.D oX..Q.4.5.a.5.f.2.2.*.F G g g v D 2._ x 8 x D ..j T { i.c.4.N.c.G.x.<.O.!.f._ /.S D S 8 ) b Q ' -.V./.8.R Q 0 x [ [ ..g ",
"F [ D [ [ R.,.,.,.<.,.5.[ =.5.%.F H g D ..v _ b x _ 3._ 4.{ *.} ,.| 1.O.O.x.x.O.' 0.! _ b x ! D ) [ [ 4.<.Y.N.C.} } ) ) 2.[ A >.",
"[ v ) :.! O.0.1.<.<.9.) %.2.%.S G p v b v ..b c c ,.h.} *.;.;.` 9.<.^ <.<.1.Q.(.x.c ! ..8 D 8 v %.&.} *.2.1.O.,.4.4.5.h.j.:.H v ",
"s :._ } f.O.<.X.O.O.O.} ,.p [ [ [ v g b :.0 ' 0 ! ,.N.2.<.V.;. .` ' R  .1.c.T.G.Q.T.x x 5 8 6 A h [ %.S c  .,.~ } S.f.3.f.a.a...",
"} 8 } 5.9.c.+.v.^ 1.T c } ] 2.:.2.[ b ! 0 t ..R ^ 4.h.8.,.) ` } c c ` ' O.O.x.1.Q.<...) b i S B f d ] l b } k ~ 8.n.4.f.5.Q.<.5.",
",.,.4.S.' ^.c.| W | | ` _ _ ,.2.3.5.f.,.O.( R 5.,.-.,.,.,.{ ) Q w c ! ' <.T.x.T.x.G.,.) ) [ a : i l =.V b Q ' <.0.0.1.x.<.,.h.L.",
"4.,.,.b  .1.v.W c.O.' T O...:.} ,.2.3.N.9.h.O.' h.*.} ) j -.8 ) } { ! 4.X.X./.0.1.[.-.{ *.%.l B B &.B ;.S } 9.f.F.(.0.O.9.O.1.} ",
"O.:.,.W.0.T.<.1.W ' ^ R T ! ! c ,.f.S.L.O.<.' :.l z S %.j 7 ;.[ -.' } T W.x.( 1.O.! Y.4.*.-.%.%.] *.2.r.h.<.! '  .O.G.' 9.,.' ,.",
"x [ 2.:.f.G.N.S.<.9.} T R ' K.L.8.-.<.V.f.} ;.x 1 p g =.S a p.] } %. .} ,.1.k.o.X.T.b 3.f.2.,.p.%.2.y.4.2.,.x.5.} 1.O.<.R ' ! Q.",
") ,.S.h.S.4.9.S.N.+.c.X.R 9.4.h.8.8.i.T.<.,.v g p g %.%.=.G j.2.L.;.2.n.X.^ 1.R X.t ' ..3.4.:.,.,.*.h.[ ,.:.5._ ,.R 1.oX' b 9.j ",
"*.2.3.:.5.[ 4.<.G.(.v.0.L.<.^.9.<.8. .z.8.,.,.l G G $.2.r.r.h.K.2.,.2.) 3.N.S.T.R X.,...f.N.Q.:.] l l ) :.*._ b ' ! T c k z 7 v ",
">.:.[ :.} ..<.3.5.N.k.x.9.x.O.1.,. . . . .5.*.2.] $.%.2.>.y.[ 2.C.f.y.4.,.2.T.T.M.M.1.s...f.5.N.4.f.S 4.*.,.[ ..} 1.' 0._ b [ [ ",
"G G S ,.[ :...<.5.+.O.N. .+.4.^ o.+. .-. .~  .;.*.&.2.2.G $.] H >.=.G.[  .N.O.9.O...5.T.5.3.5.3.5.f.f.,.:.:.j.,.E.,.f.5.5.] 2.%.",
"] F B A :.[ [ 5.! ..+.( 1.4.| N. .<.+.| ~ |  . .4.w.A a p.i ] S S ) [ ,.' <.' ' O.} T.[ ,...3.4.2.:.S.3.q.3.h.h.S.3.5.N.<.4.[ ] ",
"%.S g 5.%.*.>.} _ X.<...c.<.O.| -. .E W k.| | ,.-.4.*.S B ) f ;.v ,.2. .T.c ..c ..0.*.T.[ T.D 3.:.v a.5.3.3.*.,...,.' ,.' :.:.H ",
"u > [ :.h.h.^.2.<.c ! O.| n.,.O.+. .| ( ,.~ <.l.1. .-.*.{ Z ] -.j ,.} 5...' _ } [ 4.9.b !.b c _ O.,.D ..<...'  .' ' ! _ ..v f.G ",
"S F $.q.:.4.5.W.3._.L.O.5.8.[.S.B.Y.W.O.4. .<.,.4.-.}  .{ 8.-.z 2.} h.9.h.} ..,.C.5.i.n.w ` ` -...Q ! ' | ^ ` -. .Q 5.Q j b - F ",
":.3.N._ 2.<.' ,.E.}.XX[.4.}.K.'.l.[.[...2.,.' ,.Q ;.-.;.-.) z z =.[ *.] *.2.2.*.2.8.-.,.V.Q T P _ ' Q ' |  .<. .,.-.-.2.O.S :.F ",
":.f._.:.OX<.E.} _.f.f.5.4.K.S.,.l.L.G.T.W.c } ) <.z [ *.{ &.] V ,.G B B %.C %.N %.-.*.{ )  . .~ -.<.<.C.l.n.;.<.} i.} } 4.S S 4.",
"#.q.5.E.c ' [ W.e.2.-.5.} [ 2.2.c.,._ c 4.2.z ) 8 ) ;.*.V.;.] =.>.*.B %.*.B m d l i l w.` ;.;.;.;.z.V.,.V.-.u.4.2.} 2.*.x ) H %.",
"k.1.T.!.,.<.4...4.) :.R.l S h.[ 6 } ..D l j { z S ] ;.5.2.,.K.] G =.>.>.2.2.u # > l 6 a i.-.<.4.V.-.k.l.<.,.2.*.{ } } 6 [ } O.( ",
"+.o.+.!.,.9.h.:.[ '.) b :.[ B ) v [ v s { V *.2.*.,.{ 2.,.S.] S.G G #.>.q.F e.d f f f z Y.-.V.-.l.<.| l. . .<.[ %.s a l 2.a T E ",
"( B.+.+.1.1.9.T...b j S *.2.V C A [ f S S ;.;.{ 4.} -.Q 9.S 5.G h.F 2.F F a.>.N &.Z y.,.4.4.4.Y. .;. .~ <.{ ) ;.j [ B i % 6 T W ",
"o.k.+.<.5.9.a.<.<.h.h.*.{ 2.2.;.} } k Q ` ,.C.<.-.-.) ) ' -.4.:.>.$.d G n N @.%.=.p.;.C.5.v.<.~ -.T ) e } S z l S - S O & j E I ",
"x.+.k.T.S.4.) ) ) j j k C.;.8. .*.` _ _ <.Q } i.l.N. .T l.j h *.%.G d N N f :.D 5.,.5.,.<.N. .|  .~ } k k ;.j ) l % $ ; v e ~ / ",
"o.o.1.X.,.f...:.) j ) 2.) 5.} } O.b } k k z ^ ~ | <.k.-.Q 8 4.p :.N $.# m >.A :.9.O.O.O. .|  .| { Q ) c { h -.4 ; 4 k Q <.` | 1.",
"X.P O.1.t R.c Q ,.7 j { { ` ` e -.c j k z ) T |  . .| l. .) g f d A N H # f p S `  .^ ( +.<.<.| 4.;.-.n.i.g.} ` P T V.4. .V.V.z.",
"+.X.R ,.' O.c ` 9 0 e Q u.k Q h 7 a V S Q } '  .k.z.| l.{ ] s - G # o + , = S ) ) T R J W  .' | l. .B.l. .N.V.` |  .I.B..Xv.( <.",
",.S. .<. .O.T t e k k -.Q k ; ; i i i S -.,.+. .1.,.N.} } v F i y # > F u 2 6 s 7 7 ,.e 4.4.O.1.5.Q.O.X.N.+.z.,.l.;.<.B.| +.x.+.",
"h.R.U.].).i. .' T T  .;.j ; : % - - f 8 <.' +.| W h.^  .*.} G >.>.>.:.G G y 1 - s _ ) C.9.f.h. .O.R O.O.G.B.^ E k.k.B.( z.k.v.Y.",
"f.0.S.L.Y.).OX' | | 4.} z &.: d f * f V ^  .( Y.O.X.T } } ..2.2.>.>.C :.d = 2 % - S =. .5.' {.f.O.O.} <.P P  .<.| l.| | <.P ^ ( ",
"Q.9.].'.Y././.[.z.I. .{ w.&.&.w.< M Z ) ' 1.,.W ^ P f.0 b :.[ ,.F q.#.F y y y # 2 f.[ 5.[ {.c _ } c ` C.^ t | R  .~ P V.K P R <.",
"9.0.N.x./.v.o.o.(  .<.i.) g.$.G &.N Z ;.-.4.V.9.^ ^ 9 b [ [ *.l q.g F v B u u > G g g 3.8 j ..a._ [ ) 0 t [.0 ` E 4.{ T T T  .L.",
",.O.9.O.I F.o.O.z.,.} ;.*.G 2.G u < $.G ) -.S.-.' } ) ) 2.[ x ,.g G F S F >.#.>.F i - g v D j D [ x ,.3 _ 4 c  .l.l. . .V.} -. .",
"x.5...O.R P R E | -.*.{ f ;.*.G &.Z &.&.a } z }  .,.5.e.h.:.{ l D g S :.[ ,.>.>.F G f A g H j v 2.%.x s k f.{ j.L.u.n.;.V.u.<.} ",
"` O.! t T t w e k { { &.s l $ G > $.G C 8 8 k w Q ,.5.4.y.5.5.[ s :.[ } h.:.3.[ G >.e.j.>.:.{.[ ] :.[ v [ j.f.g.g.u.V.4.n.).<. .",
"c e c Q 0 5 _ ,.z *.] ] &.i ) f i - Z f ; 9 w 9 ~  . .l.<.n.,.<.} 8 ..3.2.5.g H 2.:.>.a.E.E._.H *.] t.r.q.>.a.f.U.S.8.h.8.` `  .",
"w e x 5 8 ,.[.j.*.Y.;.&.B i % % i l =.B 4 k k ~  .,.T.N.4.n.,.N...:.,.>...D :...[ [ :.'.:.b ! S.>.r.>.=.>.>.:.f.D [ [ -.,.} ) Q ",
"%.Q j w 4.D '.].^.{ ) ] { d i V B %.C &.l -.' -.z.N.V.x.Y.V.l. .:.:...S v T.b ..b ..5.b t b .._ >.=.j.r.:...:.D a.) D b 4 ,.; { ",
"-.[ b 8 3 |.K.{ S 8 V ;.&.{ ] &.{ =.w.j.;.-.-. .).l.B.T.B.N.~ ` ,.} ..S [ 8 8 b D :...R t R 0 w j.XX>._.v H v [ s l S [ a ; ,.{ ",
"%.{ [ ] g.2.l /.4 ) ;.U.}.L.;.V.} ;.L.;.l.l.l.l. .B.x.( o.( 1.1.*.K.E.] b x x :.,.|.' P R ' _.|.E.j.OX_.v A G s 1 p g =.S i i.[ ",
"U.;.=.p.*.6 z . l S f.L.).`.`.u.l.-.n.V.V.-.l.l.z.( | z.Y.z.| l.2.f.f.j.3.} _ T.Q.O.T.X.R N.5.W.U.h.E.'.a.H p p p N %.%.=.G V.4.",
";.2.*.g G i ; ; 7 U..X' /.l.[.-.;.-.;.<.E -.l.V. .o.+.+.L I | -...2...h.[.h.<.L./..Xf.0.Q.<.'.S.:.5.3._ :.[ :.g G G $.2.e.t.p.U.",
"U.j.e.r.C a i 7 6 ) { c.x.Y.{ V.| <. . . .<.+.+.| o./ ( -.E ` } ,.:.2.) <.4.<.<.G.T.k.v.c.N.O.<.,.5.! ..:.[ %.r.@.$.%.e.>.p.] r.",
"2.*.^.f G V i g [ { V.z ' T +. .+.| | +.+.-.| E X.L ^ W R ~ ..*.D H S :.! ,.<.<.0.1.+.N.X.+.F.P X.! c ..b *.q.q.$.%.3.3.H [ %.H ",
"B S C *.@.] G $.] %.) z O.n.^ ~  .+.|  .+.~ J J P P P W R ..[ ] D F A x _ 3.} _.X.O.( X.<.,.^ S.5.,.+.c c ,.j.j.j.a.g y q.y S F ",
"l >.] G j.&.r.&.p.;.] w Q E [.~ E  .( ( | +.E I q q r R T } :.] $.H g 5.2.f.U.,.R P ^ ,.T.<.R R P t P R ^.h.K.2.e.q.:.y y B 2 >.",
"* = d > h.r.[.t.p.*.;.j ` Y.K  .I +.J +.J J J { T q q Q ! c a.G u + %.%.2.h.].5.,.R ' <.R h.O. .E.T ,.' ..,.:.4.S %.G F F + % G ",
", > > f Z [.>.).r.;.] &.0 q P ( +./ / I P P E  . .Q n.Q k b = S F F N H [ 2.5.[.h.}._.,.h.h.W._.S.}.U.,.K.y.:...C.a Z B % V.N @ ",
", X > d N =.h.F r.=.{ ;.-.T P ~ V.| | ( (  .4.-.-.-. .;.,.S *.] *.>.h.} 2.,.} -.U.}.OX[.4.|.W.'.5.|.].} ,.:.b } 6 *.G B g , * * ",
"@.< @ > F N $.d $.;.&.Q Q  . .| k.V.k.L.l.V.4.<.} 4.} } ;.S [ 2.2.f.W.:.oX,.L.} _.K.f.4.4.K.R.,.5.E.T.Q.^.k [ k =.8 G ] $.Z N d ",
"=.=.< @.>.N N d g : h u.) l.;.;. .l.L.+.V.;.w.<.4.} 2.*.x [ >.:.<.f.5.Q.c } ' Q.4.<.:.h.:.[ 5.3.f.,.) c 2.2.8 S 4 v =.$.V.w.@.*."
};
