/* XPM */
static char *a062222c44684d4493a373f1d3169e79njpFnUHqGTiqrdJR[] = {
/* columns rows colors chars-per-pixel */
"64 64 246 2 ",
"   c #BF1D1B",
".  c #BE2628",
"X  c #BF332D",
"o  c #BC3935",
"O  c #BF2B36",
"+  c #C5140C",
"@  c #C61A0D",
"#  c #CA1B0D",
"$  c #CA1708",
"%  c #C41612",
"&  c #C51B14",
"*  c #C91C14",
"=  c #C41D1A",
"-  c #C91E19",
";  c #C91712",
":  c #C50E0E",
">  c #CC230D",
",  c #CC280B",
"<  c #C72216",
"1  c #CA2314",
"2  c #CA2B15",
"3  c #C6231C",
"4  c #C9241C",
"5  c #C62A1D",
"6  c #CB2B1C",
"7  c #C62D14",
"8  c #D12817",
"9  c #CD331C",
"0  c #CB3418",
"q  c #D13619",
"w  c #D1230E",
"e  c #C41E22",
"r  c #C62522",
"t  c #C92522",
"y  c #C62B24",
"u  c #C92B24",
"i  c #C5252A",
"p  c #C62D2B",
"a  c #C92D2A",
"s  c #CC272A",
"d  c #C63223",
"f  c #CB3225",
"g  c #C6322D",
"h  c #CA332C",
"j  c #CB3A2C",
"k  c #CB3C24",
"l  c #D23B24",
"z  c #D1362C",
"x  c #C52E31",
"c  c #CA2C32",
"v  c #C63433",
"b  c #CA3532",
"n  c #C63A35",
"m  c #CA3A34",
"M  c #C5353B",
"N  c #CA373A",
"B  c #C53B3C",
"V  c #CA3D3B",
"C  c #D03C33",
"Z  c #BE4637",
"A  c #BD503F",
"S  c #CE442D",
"D  c #C94428",
"F  c #D1482F",
"G  c #CC4235",
"H  c #CB4834",
"J  c #C6443D",
"K  c #CB433C",
"L  c #CB4B3C",
"P  c #C44936",
"I  c #D04030",
"U  c #D1443D",
"Y  c #D24B39",
"T  c #CB523D",
"R  c #C75234",
"E  c #D2533A",
"W  c #C53D43",
"Q  c #CA3D41",
"!  c #BF5549",
"~  c #BB5A57",
"^  c #BB464B",
"/  c #BD6D59",
"(  c #BE6A67",
")  c #BE7768",
"_  c #C54344",
"`  c #CB4443",
"'  c #C64B44",
"]  c #CC4B44",
"[  c #C5444A",
"{  c #CB4649",
"}  c #C44C4C",
"|  c #CC4B4B",
" . c #D04542",
".. c #D14B43",
"X. c #D14E4A",
"o. c #D1434A",
"O. c #CC5344",
"+. c #C6534B",
"@. c #CB534C",
"#. c #CC5A4D",
"$. c #C85746",
"%. c #D2534C",
"&. c #D55B4A",
"*. c #C54F52",
"=. c #CB4D53",
"-. c #C84651",
";. c #C55253",
":. c #CC5353",
">. c #C55C55",
",. c #CC5B54",
"<. c #C6555A",
"1. c #CC5459",
"2. c #C65C5C",
"3. c #CC5B5D",
"4. c #D15453",
"5. c #D25A54",
"6. c #D25B5B",
"7. c #C66749",
"8. c #C66354",
"9. c #CB6C54",
"0. c #CC625C",
"q. c #C56B5C",
"w. c #CC6B5C",
"e. c #C86557",
"r. c #D3635C",
"t. c #D26B5C",
"y. c #D16854",
"u. c #C4725B",
"i. c #CC765E",
"p. c #D4604A",
"a. c #CA5B62",
"s. c #D05B60",
"d. c #CB6463",
"f. c #CB6B64",
"g. c #CC6C6A",
"h. c #C76767",
"j. c #D36765",
"k. c #CB7464",
"l. c #CA7C65",
"z. c #CB756B",
"x. c #C47B6B",
"c. c #CB7B6C",
"v. c #C57767",
"b. c #D7736B",
"n. c #D36E71",
"m. c #C57B75",
"M. c #CC7C73",
"N. c #C97C78",
"B. c #D37876",
"V. c #CB6E72",
"C. c #BE8675",
"Z. c #BE9879",
"A. c #B69068",
"S. c #BDA17D",
"D. c #C88569",
"F. c #C58373",
"G. c #CC8376",
"H. c #C38D72",
"J. c #CD8C74",
"K. c #CA847B",
"L. c #CD8B7C",
"P. c #C58A7D",
"I. c #D2857C",
"U. c #D28775",
"Y. c #C29C73",
"T. c #CD917C",
"R. c #CC9B7E",
"E. c #C59578",
"W. c #D1957A",
"Q. c #C9916E",
"!. c #C7A26D",
"~. c #C4A376",
"^. c #C4A47B",
"/. c #CBA57D",
"(. c #C5AA7C",
"). c #CAAB7D",
"_. c #C2AA76",
"`. c #D1B27D",
"'. c #CBB07E",
"]. c #BE9980",
"[. c #BFA183",
"{. c #CD8C82",
"}. c #C78585",
"|. c #CC9382",
" X c #CA9D84",
".X c #C6948B",
"XX c #CC948B",
"oX c #CB9B8A",
"OX c #C59988",
"+X c #D29788",
"@X c #C99B94",
"#X c #D49E93",
"$X c #D98789",
"%X c #C4A383",
"&X c #CCA483",
"*X c #C5AB84",
"=X c #CBAC84",
"-X c #C4A48B",
";X c #CBA58B",
":X c #C6AC8A",
">X c #CBAC8B",
",X c #D1A68A",
"<X c #CDB284",
"1X c #C7B28C",
"2X c #CCB48C",
"3X c #CEB88C",
"4X c #D1B483",
"5X c #D4B986",
"6X c #D1B48D",
"7X c #D3BB8C",
"8X c #C5A394",
"9X c #CBA393",
"0X c #C5AB93",
"qX c #CCAC92",
"wX c #CBAC9B",
"eX c #C8A89C",
"rX c #D0AD95",
"tX c #D2AC9B",
"yX c #C6B393",
"uX c #CCB393",
"iX c #CEBA93",
"pX c #CCB39B",
"aX c #CDBA9B",
"sX c #C6B69A",
"dX c #D1B494",
"fX c #D2BB94",
"gX c #D2B59A",
"hX c #D2BB9B",
"jX c #C9ACA4",
"kX c #D1ABA5",
"lX c #CAB2A4",
"zX c #CDBBA3",
"xX c #CDBBAB",
"cX c #C9B5A5",
"vX c #D1B6A3",
"bX c #D2BCA4",
"nX c #D2BBA9",
"mX c #D3BEB5",
"MX c #D1BAB8",
"NX c #C8B8B4",
"BX c #D3C19D",
"VX c #D3C1AD",
"CX c #D5C2A6",
"ZX c #D3C4B4",
"AX c #D3C3BB",
"SX c #CEC0AA",
/* pixels */
"4 % 3 = . = r v x = 3 | h B r p y 3 r = = e = d r i _ W v n v x V :.:.| :.B y b = e = y r = = = r 3 ; V 1.[ g 3 = s r v W v @.s ",
"* p r p B r v *.. . % % + s _ W r b g 3 p v g h n x Q _ i r V W a b t r m p e b v M r =   r   = = % 3 V a g = a 3 1 n _ h.| _ d ",
"| B v p e 3 + o ~ m.P.( ^ X = p 3 t V 3 & p 3 b :.v g { v g y N v b a t t s W =.x M W W   *.C.~ ^ O % p % = ; t 3 3 v H.wXwXG.,.",
"@.3 v r Q o 0.pX0X0X0X0X;XjX( B a = m = r B m J ;.m.m.8.n W B x b Q V b b v v | a.W <.i } ].].[.Z.].o p c = % h M o K.cXbXfX2XT.",
"i.f p p 3.X +XaXyX*X1X%X*XiXlX^ m | # 4 _ | ] d.K.8XsXxX>.y   x x t r h * c V r Q a.M e L.%X).^.Z.[.~   . v % a } n pXaXfX2X1X=X",
"W.J y Q p r 6XhX2X_.*X*X2X3XsX( n < b = t j G 8X0X%X(.aX|.3   W   r ` b b B a N =.M Q M  X%X*X*XyX[.C.3 x h % ; 3 L aXdX6X=X>X2X",
"R.$.N 4.d.} uXpX<X).).=X<X3XzX) # m Q 1.g V ,.wX(.!.S.iXOX  + v i b v h c -.Q V Q n.[ V G ;X;X&X<XyX~ v o r t a v ,.qXgX3X^.^.2X",
"=X#.j z | V c.aXvXdX<X'.<X3XSX! u d o.j u K X.;X(.Z.~.2Xx.v   + r v x * c =.` N m -.W r B K T.;XqX&XZ W -.W i * * h z.wX2X).>X2X",
"l.K 3 m j z ,.0.tXvXgXdXdXhXQ.7 f 8 f # 6 ..J l.T.H.H.l.2.. B x p v M - r _ ` s h r [ v ] ] b K ,.*.e 1.| i v 6 ; 6 ] L.wXqXqX;X",
"V a j.s.u > 8 j J B.tXtX;Xu.d j 2 8 6 # ..V V h n ' J p <.;.| :.c [ B M V Q h * s n ;.} g v * h V X._ b r a = s s c j %.f.q.$.V ",
"< t b t j 8 z l f f j f ] ..v 9 w $ w w t # - _ =.v r 3 r V _ @.| W _ x W { v 3 3 >.|.[.m.W ` { v a B B b p n t y ] V h ` h = & ",
"u t V =.=.] w w 6 > w ..6 f G 2 $ $ K * { < ; = =   & < 5 1 f j t i M 1.*._ Q M +.8X0XsXcX3.| y r a a j h b V m 4 g a 6 * g V b ",
"t K =.| X._ a f X.K 8 2 1 $ 8 w $ 6 1 V =.t t M v s < 4 m 6 u 4 a y n x p v <.o G.aX1X=XsXe.K 6 * t y V f j d a t Q =.Q a r 5 y ",
"4 a b - u a j b h 4 * z u 1 1 > w 4 C ] v = v =.^ { a ] K 4 a a 3 3 i v M W g 3 &XiX2X=X:X' h f # j G u y < < h ` | | ` g + ; < ",
"- 4 V h t h - t V u 4 h a 4 - j y U & < + s h.= v x j s a V M N a g M h.;.] d.} ,XuX2XuX|.| L m 6 < 7 G g h 4 5 f h - r 4 - < a ",
"- f X.N h s z C 1.h t a V b h 4.5 g r _ ~ o i % K K s m b r ` K V W v _ } U | N z.pXoXd.] _ ` m ` v 5 g h f m < t V h t Q = < * ",
"s V n.:.` =.b 5.j.h m V V h U  .] @XOXOXS.Z.)   ; 3 V 3.` t y y s i x V ] V V h #.+.O.j m m Q ] m ] y V ` | | v t ] v b v v 4 4 ",
"j ,.a.<.4.B.$XU j.a V 4 + ; K b >.lX*XZ.S._.Y.X 6 V { 6.n V g 3 r V W G V | ] j j | 6 y | b 3.v a { V b | h b d 4 V v x t - - a ",
"c.-XcXxXnXXXh.] 6...m V 4 * a ` t.>X_.Z.A.!.*XA & f 4 :.K j h 4 d p 3 h ;.h V V K ` y 5 v 5 m V | =.] m ` V h j s j 1.} i j H e.",
"/.:XuXzXnXZXxXkXq.q z V 6 - c _ J qX>X~.).=X Xo V r * N n 5 3 h u p g p b | ] { s b r 3 p h ' f.0.:...h y 3 h a f ] t v r d k. X",
").(.=XfXfXhXhXnXAX8.2 K 3 t b B j O. XXX;Xm.' J =.r g v f a V v a h y r a g h g g ` s = b z.rXnXnX.X} U 3 h K m f s r Q p T qX*X",
"<X).=X).=XdX7XBXVX8Xq ..s 4 = n f j j.` :.1._ N =.V ` :.r s t _ h v r r a b h ` O.@.j V g.9XhXhXhXhXOX0.=.] K 4.V a =.*._ l.aXuX",
":X=X>X,X,XdXhXBXhXcXH q f 6 a ] %.4.] K n.:.6.{ | M a t g f Q p b h r d a h ` _ V f j g.#XhXfX7XdXdXpXP.L =.4.:.V K 4 a d i.2X*X",
").%X).)./.<X7XBXBXxXD q j r 3 a f f %.1.V.o.| g a @.r < r y _ N v g b #.}.v.! p m h a f.R.fX6X<X2X6X<XH.j h s V | r = - k y.>X).",
",X=X<X<X/.=X5X7XBX;Xq l f a a M X.K ,.j.6.j.V a = v t a r 6 g p p g 0.9XwX>XeX.XB 4 & { +X4XA.C.).).&Xu.K 3 * 4 b Q <.r a S  XrX",
" XqXkXvXvX=X=X2XnX7.l g 4 t b 4._ %.4.Q a @.v < * b B h t e ` p m @.T.rX2X>XyXpX<.y 4 g c.,X).).!.R.J.,.| t 4 t V :.[ Q h u k y.",
"L ] B.#X#XoXoXR.7.q j 2 * a X.4 h ` J 5.*.<._ r ; = t g b { r p K l.dX4X4XdXuX9Xh.h < t r.9X=X).W.l.J K v y t g V < p e s h 5 j ",
"* < V G f G d 6 , l d s - j t 2  .r.] 9X0X9Xx.P V h u r r a V v g #.dX6X=XuXuX;X>.h t r | I.{.B.w.V * a v h d 4 j a a a n g u 3 ",
"- 4 < 6 4 h 1 * S 2 4 - p h f f f ..{.pX:X^.Q.D.q.v 4 @ t { M b v G T.qX=X=X=XL.+.4 * g j f V < V a * ; t h b h f r t = < - v a ",
"t 3 r r h B 3 & 3 4 r - 4 h ..u 1 j |.qX'.[.(.~.Y.' r 3 < p ` V p y L K.+X|.c.w.J f 3 a K f t < p g h g y a 4 d h r h V 3 * p x ",
"< V | y V v t s h a y r a h ` h 6 s j.qX*XY.~.(.(.v.5 2 3 f p 4 a g g l F L G j r g f f j a j s j r p h h g s f n y a -.t - = 3 ",
"K K V K v a h m V t m m M b ..| V 5.#.b.9X;X/.'.*XD.5 7 5 n v m V b j d k k j u 5 g j u * h g d 5 f u s 4 h g b h b | a.' ' [ :.",
"q.L B V V s t a s a r V { ` K ` y p v _ 3.L. X-Xx.g 6 h u a h j b b 9 j J y j b 5 r n f 5 < y h a = a j f V m m v K s.@XkXcXOXXX",
"oXf.V p v j t u { b v b W V Q a 3 r V W ] ] ,.8.9 j y h v V t t b g t o B } J n g g m v :.r r v d 6 7 r u V v p m 0.nXVXVXbXfXhX",
"fXT.+.b n b h X.3.v p p c V n x y = ; r g y J j m y = h 3 r a V V j K .XOX9XOXe.g 5 m ] b g s y g ` n b a p v { B I.AXCXfXfXfXhX",
"fXpXM.b e b b K ] < K y b h ] | r ; V n t = h g v p y < & * b V m j #.lX*X%XbXlXv.9 5 n g v y g y h n v ` V y b ] @XaXfX2X:X3XaX",
"fXhXv.V n s g n K 3 5 b 4.] f.3.n 3 r } p 3 s | n t < p a r t ` V K d.>X_.%XuXhXL.@.y r x M N v B v a b p b r K K wXgX6X*X>X2XfX",
"fXuXe.V i y 3 y W p d ] @XvXxXkXK.;.J J 6 h m n t u u Q n b m j j V K qX>X(.6X6Xc.~ v g B p b V V p a - a b v [ | L.gXuX~.^.2XfX",
"2XT.+.J p a 4 b = V G w.bXhX6XuX9XjX{.H j h u * * a a < * a 4 z V n j O.oX&X=XD.#.x = b i g V m a V j h m W n p V t.tXuX<X>XuXfX",
"k.@.j g y u = 4 + @ %.G.aXdX1X:X=XuXcXz...6 2 * 6 b j r 4 a V K N p f u q.! o J p 3 { ` ` ,.M.K.d.| L m V p x N V K z.8X8X XW.D.",
"] t ; ] [ W s @ % < 6.J.uX2X*XS.=X2XlXF.L a 1 j m ` a h b b m j m V u a i [ v n b v b 3.$X,XtXgXkX@X&.I g m B _ Q v ..,.#.G f f ",
"j * & s a 1 g Q W t | l.iXyX%X*X*X<XR.$.m < z ` h t * m u s s h a h < g M x p B b a j +XfXfX7X7XbXmXk.&.j r c v B V a m g 3 - # ",
"B 4 4 a 1 t _ 1.*.[ ] T ;X>X:X=X%XQ.9.j a < - 3 & b h h 4 h U a b n r B n B x p r h #.bXdX5X7XfXCXmXkXt.L p v n b r - * V 6.[ h ",
"x t b h 1 C h - p p O.T $.R 9.u.7.H | t t b V r - r p V G ] 5.X.` K y < ; v M p j V l.hX4X4X4X6XhXSXNXz.] n p v b V r < N b g | ",
"b n m l 6 s < 4 b y V J j F L B.r.5.] a < V r a a 3 ] f l E H 5.b.4._ 3 4 r p r p m t.gX7X`.).<XfXzXsXw.G . y f V { B p b 4 ` 1.",
".X9Xk.j b.| t - & a p h u V @.| 3.G  .y b t u m U 5.n.S S w.{.{.d.f.r.m g v p r 3 a @.=X2X'.~.(.2XwX|.&.f v < * m r p M { K J 2.",
"-XyXxXq.@.j b h s & + ; u K m b h V 3 3 V %.j C 5...E 9.pXeXbXVXVXkXa.:.' V a a 3 r d k.9X;XqXqXuXT.y.O.n g 3 u b 4 b Q ' K G..X",
"Y.*XaXOX9 9 b b m = 3 t m f h h b y a t j 4.d.5.j K J.bXhX3X5X7XfXzXK.n.r.] K p g 3 g j y.t.I.J.G.T j g g h 4 K s + t u j ] jX:X",
"Z.^.BX-X2 9 < + 6 N <.` @.{ 5 f d < K b p m ,.K m L uX6X5X).5X5X5XiX-XI.#.H { v p 3 r r 7 D E E E Y f a h h V | b 6 a f L w.qX_.",
"Y.^.3X/ 2 4 f 4 # b K 2.h.3.| B b s t j V V H f V H dXfX4X/.=X6X5X5XqXz.$Xj.:.B r y y = s 9 l 9 m m n g ` | ;.@.4.4.4.m U | >X%X",
"v.D./ 7 2 f - a 4 8 ] .X@XXXv.>.B _ K n 5 m G 6 5 J U.dX<X=X/.*X<X4XsX7.t.%.:.Q y r g 4 y a s 5 a a G I K h V X.b.j.j.F @.H y.c.",
"d d 5 > * a ` 8 6 6 w.pXSXnX>X|.>.b n | K @.` V t g ] ;X;X=X(.(.<X3XE.q r.U ` p r p = p X 5 h x g h G H 5.z X.B.b.b.r.U.g.,.5 g ",
"< 1 6 3 ; 4 t $ * d c.:XaXxXiXoX>.3 3 V ] b j K f g V #.k.&X2X2X1XE.Z j | Q h 3 n 1.M _ K p v b g _ m j.<.` 5.b.t.+XmXAXZXlX' u ",
"h @ f t * 1 6 # # 3 k.%XpXyX%Xm.g 7 b j f L K K j K G V k S J.E.u.P V | b b v 1.v v v ..r U L K b U ` m ` r %.f.#XAXVXCXBXnXC.b ",
"4 z * t 5 @ * u $ u $.x.x.H.F.O.u 4 u 7 0 f.e.;.| K b ` :.V H L X.` ] 6.t U { _ K j K C L 9 I 5.V 3 = : c 1.g.B.AXZXVXhXCXiXv.n ",
"m ` V = 2 s t a 1 # < h L ' J 3 4 m d f XXwXpXOXq.:.X.] ] j 6.#.] V Q ` a a 6 j V L F &.&.&.T &.] { p < 3 e K M.VXCXbX1XaXiX) @ ",
"d ` t y t r 3 < - - 1 u * 1 3 r r 5 9 XXmXlXBXaXuXF.' n @.g L X.| ,.Q a m C j ..,.B.J.&XuX;XD.p.@.W ` a i g s k.xXBXuX>XuXyXP f ",
"t f # u g V =.3 4 a ; < a < 3 4 r d K.sXpXyXcXAXhXpXF.5 N N G V V b V j K | U 4.,.6X3X4X7XfX2XQ.H t x Q B 2.n #.9XhXdXuXuXu.7 f ",
"..< 1 a j j K m 4 t 4 b m p 5 p s G z.0X-X-X[.[.-XuX@Xd m h s h V j  .V K..XG H i.`.`.4X5X5X2X:X8.f g _ B [ K ` d.|. XT.#.y m 5 ",
"V h 2 d y r h t @ 6 4 U = r = h r g +.f.G.@XjX@X8XeXZ.< h h h h U a K ] x.%XS T J.4X/.=X6X5X5X-XP G p u r g 4 | b u a L L v h @.",
"g h g 5 y 3 3 t u V g 3 & r r y p 3 ' J _ q.}.}.( J 0 b { V 3 a a f s a g D , P T.<X=X~.=X2X4XE.J ' b 5 a a j t + 8 G 1 f V V ] ",
"3 B @.r y ` < | h h g s r b 3 = r y n +.B n L ' g j 9 7 4 p v m m s K V < 2 0 j c.>X=X*X).=X<Xu.J K 3 & h 3 y p t 2 6 6 f V a < ",
"v v b r < a t r @ t t m r p y 3 3 y r p x g d J i M J r * V Q | a h V j 6 9 5 | ] f.&XqX1X<XH.J p N Q p & * s V K g m j m b v a ",
"y < v h r j r g r = = h =.W x _ r 3 ; m [ _ = a -.} X g c x v v t h -.=.@.j < 3 n j H Q.E.q.' | a y - y r y a 3 3 g y Q v b p h "
};
